<svg id="visual" viewBox="0 0 900 600" width="900" height="600" xmlns="http://www.w3.org/2000/svg" xmlns:xlink="http://www.w3.org/1999/xlink" version="1.1"><g><g transform="translate(683 542)"><path d="M0 -147L127.3 -73.5L127.3 73.5L0 147L-127.3 73.5L-127.3 -73.5Z" fill="none" stroke="#297EA6" stroke-width="2"></path></g><g transform="translate(656 53)"><path d="M0 -129L111.7 -64.5L111.7 64.5L0 129L-111.7 64.5L-111.7 -64.5Z" stroke="#297EA6" fill="none" stroke-width="2"></path></g><g transform="translate(160 261)"><path d="M0 -77L66.7 -38.5L66.7 38.5L0 77L-66.7 38.5L-66.7 -38.5Z" stroke="#297EA6" fill="none" stroke-width="2"></path></g><g transform="translate(300 539)"><path d="M0 -125L108.3 -62.5L108.3 62.5L0 125L-108.3 62.5L-108.3 -62.5Z" stroke="#297EA6" fill="none" stroke-width="2"></path></g><g transform="translate(889 242)"><path d="M0 -81L70.1 -40.5L70.1 40.5L0 81L-70.1 40.5L-70.1 -40.5Z" stroke="#297EA6" fill="none" stroke-width="2"></path></g><g transform="translate(483 307)"><path d="M0 -76L65.8 -38L65.8 38L0 76L-65.8 38L-65.8 -38Z" stroke="#297EA6" fill="none" stroke-width="2"></path></g><g transform="translate(8 579)"><path d="M0 -86L74.5 -43L74.5 43L0 86L-74.5 43L-74.5 -43Z" stroke="#297EA6" fill="none" stroke-width="2"></path></g><g transform="translate(2 10)"><path d="M0 -94L81.4 -47L81.4 47L0 94L-81.4 47L-81.4 -47Z" stroke="#297EA6" fill="none" stroke-width="2"></path></g></g></svg>